<svg xmlns="http://www.w3.org/2000/svg" viewBox="1.7 -79.65 286.51 81.24"><path d="M37.44-78.29h-21.1v58.55c0 3.25-2.35 4.88-7.04 4.88H3.97L1.7-1.13C5.33.61 10.82 1.48 18.15 1.48c6.06 0 10.78-1.46 14.19-4.37 3.4-2.92 5.1-7.06 5.1-12.43zm79.09 0H95.2v46.52c0 6.66-.83 11.16-2.5 13.5-1.66 2.35-4.76 3.52-9.3 3.52-4.54 0-7.64-1.17-9.31-3.52-1.66-2.34-2.49-6.84-2.49-13.5v-46.52H50.27v46.52c0 12.18 2.57 20.78 7.71 25.81 5.15 5.03 14 7.55 26.55 7.55 11.73 0 19.99-2.52 24.8-7.55 4.8-5.03 7.2-13.63 7.2-25.81zM150.8 0v-78.29h-21.11V0zm70.35-17.7c-5.52.6-13.77.91-24.74.91-4.69 0-7.85-1.53-9.47-4.6-1.63-3.06-2.44-8.98-2.44-17.76 0-8.77.81-14.69 2.44-17.75 1.62-3.07 4.78-4.6 9.47-4.6 7.72 0 15.43.11 23.15.34l1.59-15.66c-6.96-1.89-15.21-2.83-24.74-2.83-12.56 0-21.41 3.02-26.55 9.07-5.14 6.06-7.72 16.53-7.72 31.43 0 14.91 2.58 25.38 7.72 31.43 5.14 6.06 13.99 9.08 26.55 9.08 10.82 0 19.63-1.17 26.44-3.52zm66.04 1.47H257.8c-3.26 0-4.88-1.62-4.88-4.87v-11.92h30.07v-14.64h-30.07v-9.53c0-3.25 1.62-4.88 4.88-4.88h29.39l1.02-15.31c-7.42-.84-20.35-1.25-38.81-1.25-5.29 0-9.59 1.53-12.88 4.59-3.29 3.07-4.93 7.13-4.93 12.2v45.39c0 5.07 1.62 9.13 4.88 12.19 3.25 3.07 7.56 4.6 12.93 4.6 18.46 0 31.39-.42 38.81-1.25z" fill="#441110"/></svg>