<?xml version="1.0" encoding="utf-8"?><svg viewBox="0 0 512 512" xmlns="http://www.w3.org/2000/svg" xmlns:xlink="http://www.w3.org/1999/xlink"><style>:root>svg{display:none}:root>svg:target{display:block}</style><svg viewBox="0 0 49 61" id="document" xmlns="http://www.w3.org/2000/svg"><path data-name="Forma 1" d="M33.79 0H9.61a6.458 6.458 0 00-6.4 6.49V30.5h-.63A2.6 2.6 0 000 33.12v15.86a2.6 2.6 0 002.58 2.62h.63v2.91A6.451 6.451 0 009.61 61H42.6a6.451 6.451 0 006.4-6.49V15.37zM4.27 35.3a21.238 21.238 0 013.32-.23 6.889 6.889 0 014.44 1.17 4.9 4.9 0 011.84 4.15 5.642 5.642 0 01-1.8 4.46 7.763 7.763 0 01-5.01 1.42 20.934 20.934 0 01-2.79-.17V35.3zM42.6 57.02H9.61a2.493 2.493 0 01-2.48-2.51V51.6h30.75a2.6 2.6 0 002.58-2.62V33.12a2.6 2.6 0 00-2.58-2.62H7.13V6.49a2.5 2.5 0 012.48-2.51l22.71-.02v8.5a4.469 4.469 0 004.44 4.5l8.22-.02.1 37.57a2.5 2.5 0 01-2.48 2.51zM14.99 40.73c0-3.3 2.08-5.76 5.28-5.76 3.34 0 5.16 2.53 5.16 5.57 0 3.6-2.16 5.79-5.34 5.79-3.22 0-5.1-2.46-5.1-5.6zm17.61 3.53a6.275 6.275 0 002.05-.36l.37 1.94a6.881 6.881 0 01-2.79.48c-3.75 0-5.69-2.37-5.69-5.5a5.576 5.576 0 015.93-5.85 6.273 6.273 0 012.67.49l-.49 1.97a5.343 5.343 0 00-2.07-.4 3.618 3.618 0 00.02 7.23zm-21.34-3.79a3.125 3.125 0 00-3.41-3.49 5.021 5.021 0 00-1.12.1v7.19a4.418 4.418 0 00.86.05c2.22.02 3.67-1.22 3.67-3.85zm11.57.15c0-1.98-.93-3.68-2.62-3.68-1.66 0-2.63 1.61-2.63 3.74 0 2.16 1 3.68 2.64 3.68 1.66 0 2.61-1.6 2.61-3.74z" fill="#f88600" fill-rule="evenodd"/></svg><svg viewBox="0 0 32 18" id="envelop" xmlns="http://www.w3.org/2000/svg"><path data-name="Forma 1" d="M31.44 3.56a.7.7 0 00-.4.14l-9.4 8.17a.985.985 0 01-.66.25 1.01 1.01 0 01-.67-.25l-9.12-7.89a.677.677 0 00-.48-.22.585.585 0 00-.56.69v12.12A1.43 1.43 0 0011.58 18h19.01A1.407 1.407 0 0032 16.57V4.27a.6.6 0 00-.56-.71zM11.01 1.11l9.17 7.82a1.2 1.2 0 00.8.32 1.164 1.164 0 00.75-.28l9.28-8 .02-.01a.632.632 0 00.26-.68.461.461 0 00-.43-.28H11.31a.571.571 0 00-.53.34.672.672 0 00.22.76zm-4.07 3.6h-2.6a.869.869 0 00-.87.86v.6a.869.869 0 00.87.86h2.6a.86.86 0 00.86-.86v-.6a.86.86 0 00-.86-.86zm0 3.78H2.6a.86.86 0 00-.87.85v.6a.862.862 0 00.87.86h4.34a.854.854 0 00.86-.86v-.6a.851.851 0 00-.86-.85zm0 3.77H.87a.86.86 0 00-.87.85v.6a.862.862 0 00.87.86h6.07a.854.854 0 00.86-.86v-.6a.851.851 0 00-.86-.85z" fill="#fff" fill-rule="evenodd"/></svg><svg viewBox="0 0 512.001 512.001" id="offer" xmlns="http://www.w3.org/2000/svg"><path d="M507.606 4.394c-5.857-5.858-15.356-5.858-21.214 0l-43.69 43.69a45.11 45.11 0 00-8.479-3.05L298.452 11.491c-15.246-3.811-31.622.724-42.735 11.837L13.16 265.486c-17.545 17.546-17.545 46.096 0 63.643l169.713 169.712c17.546 17.546 46.096 17.547 63.643 0l242.158-242.558c11.113-11.113 15.649-27.489 11.836-42.736l-33.542-135.77a45.205 45.205 0 00-3.05-8.479l43.69-43.69c5.856-5.858 5.856-15.356-.002-21.214zm-36.203 216.431c1.271 5.082-.241 10.54-3.945 14.245L225.3 477.627c-5.849 5.849-15.366 5.849-21.215 0L34.373 307.914c-5.849-5.849-5.849-15.366 0-21.215L276.931 44.542c2.837-2.837 6.703-4.388 10.641-4.388 1.204 0 2.415.145 3.604.442l127.53 31.483-36.125 36.125c-16.725-7.966-37.384-5.044-51.21 8.782-17.547 17.547-17.547 46.096 0 63.643 8.772 8.773 20.297 13.16 31.821 13.16 11.523 0 23.048-4.386 31.82-13.16 13.829-13.828 16.75-34.486 8.782-51.211l36.125-36.125 31.484 127.532zm-97.604-61.409c-5.848 5.848-15.365 5.849-21.214 0-5.848-5.848-5.848-15.366 0-21.214a14.95 14.95 0 0110.607-4.386c3.84 0 7.682 1.462 10.605 4.385l.001.001.001.001c5.849 5.848 5.848 15.365 0 21.213z"/><path d="M246.514 180.63c-17.546-17.546-46.096-17.546-63.643 0-17.545 17.546-17.545 46.096 0 63.643 17.546 17.546 46.097 17.546 63.643 0 17.547-17.547 17.547-46.096 0-63.643zm-21.213 42.428c-5.849 5.849-15.366 5.849-21.214 0-5.848-5.849-5.85-15.366-.001-21.214 5.849-5.848 15.365-5.849 21.215 0 5.848 5.848 5.848 15.365 0 21.214zm42.427 106.07c-17.587-17.587-46.052-17.589-63.642 0-17.547 17.547-17.547 46.096 0 63.643 17.588 17.587 46.053 17.59 63.642 0 17.547-17.547 17.547-46.096 0-63.643zm-21.214 42.429c-5.861 5.862-15.352 5.863-21.214 0-5.848-5.848-5.848-15.366 0-21.214 5.862-5.862 15.352-5.863 21.214 0 5.848 5.848 5.848 15.364 0 21.214zm89.159-97.12c-.915-8.234-8.333-14.168-16.566-13.253l-190.926 21.214c-8.234.915-14.168 8.331-13.253 16.566.853 7.671 7.347 13.346 14.891 13.346.553 0 1.113-.031 1.675-.093l190.927-21.214c8.234-.916 14.168-8.332 13.252-16.566z"/></svg><svg viewBox="0 0 16 16" id="phone" xmlns="http://www.w3.org/2000/svg"><path d="M12.16 10.58a1.125 1.125 0 00-1.69 0c-.4.4-.79.79-1.18 1.19a.241.241 0 01-.33.06c-.26-.14-.53-.25-.77-.41a12.286 12.286 0 01-2.97-2.69 7.126 7.126 0 01-1.06-1.7.262.262 0 01.06-.32c.4-.38.78-.77 1.17-1.17a1.126 1.126 0 000-1.73l-.93-.93c-.32-.32-.64-.65-.96-.96a1.125 1.125 0 00-1.69 0c-.4.39-.79.8-1.19 1.18a1.94 1.94 0 00-.61 1.3 5.53 5.53 0 00.43 2.38A14.23 14.23 0 003 11.04a15.708 15.708 0 005.25 4.11 7.524 7.524 0 002.9.84 2.154 2.154 0 001.83-.69c.34-.38.72-.73 1.08-1.09a1.129 1.129 0 00.01-1.72c-.63-.64-1.27-1.27-1.91-1.91zm-.63-2.65l1.23-.21a5.517 5.517 0 00-1.54-2.96A5.385 5.385 0 008.09 3.2l-.17 1.23a4.28 4.28 0 013.61 3.5zm1.92-5.34A9.068 9.068 0 008.26 0l-.18 1.24a7.791 7.791 0 014.49 2.23 7.874 7.874 0 012.2 4.25L16 7.51a9.156 9.156 0 00-2.55-4.92z" fill="#fff" fill-rule="evenodd"/></svg><svg viewBox="0 0 33 32" id="setting" xmlns="http://www.w3.org/2000/svg"><path data-name="Forma 1" d="M28.48 11.94l-.56-1.32c1.93-4.3 1.8-4.43 1.42-4.8l-2.46-2.38-.24-.2h-.29c-.15 0-.59 0-4.33 1.67l-1.38-.54C18.86.01 18.68.01 18.16.01h-3.47c-.52 0-.72 0-2.37 4.37l-1.37.55a23.74 23.74 0 00-4.41-1.59l-.33.01-2.65 2.57c-.4.37-.54.5 1.5 4.74l-.56 1.31c-4.51 1.72-4.51 1.89-4.51 2.42v3.36c0 .53 0 .71 4.52 2.32l.56 1.31c-1.92 4.3-1.79 4.43-1.42 4.8l2.46 2.38.24.2h.29c.15 0 .59 0 4.34-1.68l1.37.56c1.78 4.35 1.96 4.35 2.48 4.35h3.47c.54 0 .72 0 2.38-4.37l1.38-.55a22.705 22.705 0 004.4 1.59l.33-.01 2.66-2.58c.38-.38.52-.51-1.51-4.73l.56-1.31c4.51-1.73 4.51-1.91 4.51-2.42v-3.36c0-.53 0-.72-4.53-2.31zM16.5 21.6a5.6 5.6 0 115.77-5.6 5.7 5.7 0 01-5.77 5.6z" fill="#aaa" fill-rule="evenodd"/></svg><svg viewBox="0 0 41 41" id="validate--error" xmlns="http://www.w3.org/2000/svg"><path data-name="Forma 1" d="M39.291 18.79a1.712 1.712 0 00-1.708 1.71 17.073 17.073 0 11-4.961-12.04 1.706 1.706 0 102.424-2.4A20.5 20.5 0 1041 20.5a1.713 1.713 0 00-1.709-1.71zM22.915 20.5l3.918-3.92a1.706 1.706 0 00-2.416-2.41L20.5 18.08l-3.917-3.91a1.706 1.706 0 00-2.416 2.41l3.917 3.92-3.917 3.92a1.7 1.7 0 000 2.41 1.709 1.709 0 002.416 0l3.917-3.91 3.917 3.91a1.709 1.709 0 002.416 0 1.7 1.7 0 000-2.41z" fill="#fff" fill-rule="evenodd"/></svg><svg viewBox="0 0 41 41" id="validate--succses" xmlns="http://www.w3.org/2000/svg"><path data-name="Forma 1" d="M29.4 15.02a1.7 1.7 0 00-2.416 0l-7.333 7.33-3.063-3.06a1.71 1.71 0 00-2.416 2.42l4.271 4.27a1.708 1.708 0 002.415 0l8.542-8.54a1.713 1.713 0 000-2.42zm9.9 3.77a1.712 1.712 0 00-1.708 1.71 17.071 17.071 0 11-4.96-12.04 1.706 1.706 0 102.424-2.4A20.5 20.5 0 1041 20.5a1.713 1.713 0 00-1.709-1.71z" fill="#fff" fill-rule="evenodd"/></svg></svg>