<svg xmlns="http://www.w3.org/2000/svg" version="1.1" xlink="http://www.w3.org/1999/xlink" xmlns:svgjs="http://svgjs.com/svgjs" width="100%" height="100%" viewBox="1.7000000476837158 -79.6500015258789 286.5099792480469 81.23999786376953"><g fill="#fffefe"><path d="M37.44 -78.29L16.34 -78.29L16.34 -19.74C16.34 -16.49 13.99 -14.86 9.3 -14.86L3.97 -14.86L1.7 -1.13C5.33 0.61 10.82 1.48 18.15 1.48C24.21 1.48 28.93 0.02 32.34 -2.89C35.74 -5.81 37.44 -9.95 37.44 -15.32Z M116.53 -78.29L95.2 -78.29L95.2 -31.77C95.2 -25.11 94.37 -20.61 92.7 -18.27C91.04 -15.92 87.94 -14.75 83.4 -14.75C78.86 -14.75 75.76 -15.92 74.09 -18.27C72.43 -20.61 71.6 -25.11 71.6 -31.77L71.6 -78.29L50.27 -78.29L50.27 -31.77C50.27 -19.59 52.84 -10.99 57.98 -5.96C63.13 -0.93 71.98 1.59 84.53 1.59C96.26 1.59 104.52 -0.93 109.33 -5.96C114.13 -10.99 116.53 -19.59 116.53 -31.77Z M150.8 0L150.8 -78.29L129.69 -78.29L129.69 0Z M221.15 -17.7C215.63 -17.1 207.38 -16.79 196.41 -16.79C191.72 -16.79 188.56 -18.32 186.94 -21.39C185.31 -24.45 184.5 -30.37 184.5 -39.15C184.5 -47.92 185.31 -53.84 186.94 -56.9C188.56 -59.97 191.72 -61.5 196.41 -61.5C204.13 -61.5 211.84 -61.39 219.56 -61.16L221.15 -76.82C214.19 -78.71 205.94 -79.65 196.41 -79.65C183.85 -79.65 175 -76.63 169.86 -70.58C164.72 -64.52 162.14 -54.05 162.14 -39.15C162.14 -24.24 164.72 -13.77 169.86 -7.72C175 -1.66 183.85 1.36 196.41 1.36C207.23 1.36 216.04 0.19 222.85 -2.16Z M287.19 -16.23L257.8 -16.23C254.54 -16.23 252.92 -17.85 252.92 -21.1L252.92 -33.02L282.99 -33.02L282.99 -47.66L252.92 -47.66L252.92 -57.19C252.92 -60.44 254.54 -62.07 257.8 -62.07L287.19 -62.07L288.21 -77.38C280.79 -78.22 267.86 -78.63 249.4 -78.63C244.11 -78.63 239.81 -77.1 236.52 -74.04C233.23 -70.97 231.59 -66.91 231.59 -61.84L231.59 -16.45C231.59 -11.38 233.21 -7.32 236.47 -4.26C239.72 -1.19 244.03 0.34 249.4 0.34C267.86 0.34 280.79 -0.08 288.21 -0.91Z"></path></g></svg>