<svg xmlns="http://www.w3.org/2000/svg" version="1.1" xlink="http://www.w3.org/1999/xlink" xmlns:svgjs="http://svgjs.com/svgjs" width="100%" height="100%" viewBox="8.395001411437988 5.030583381652832 76.2049789428711 89.93941497802734"><g fill="#fff"><path d="M23.711 40.256c.779 0 1.553-.066 2.32-.182l7.299 53.168a2 2 0 0 0 1.981 1.728H66.54a2 2 0 0 0 1.981-1.728l8.923-65a2 2 0 0 0-1.982-2.272h-8.616l3.979-12.906 12.408-4.136a2 2 0 0 0-1.265-3.795L68.584 9.594a1.999 1.999 0 0 0-1.278 1.308L62.66 25.97H26.387a2.002 2.002 0 0 0-1.982 2.272l1.079 7.86a11.43 11.43 0 0 1-1.774.154c-6.239 0-11.315-5.076-11.315-11.316 0-6.239 5.076-11.315 11.315-11.315 4.379 0 8.406 2.565 10.26 6.535a2 2 0 0 0 3.625-1.692c-2.509-5.372-7.959-8.842-13.885-8.842-8.445 0-15.315 6.871-15.315 15.315 0 8.444 6.87 15.315 15.316 15.315zM73.169 29.97l-.863 6.286h-8.631l1.938-6.286h7.556zm-11.742 0l-1.938 6.286H36.674a2 2 0 0 0 0 4h35.083L64.795 90.97H37.054l-8.374-61h32.747z"></path><path d="M43.8 64.707c3.899 0 7.071-3.172 7.071-7.072S47.7 50.563 43.8 50.563s-7.072 3.172-7.072 7.072 3.173 7.072 7.072 7.072zm0-10.144c1.693 0 3.071 1.378 3.071 3.072s-1.378 3.072-3.071 3.072c-1.694 0-3.072-1.378-3.072-3.072s1.378-3.072 3.072-3.072zm5.067 18.524c0 3.078 2.504 5.583 5.582 5.583s5.583-2.504 5.583-5.583-2.505-5.583-5.583-5.583-5.582 2.504-5.582 5.583zm5.582-1.583c.873 0 1.583.71 1.583 1.583s-.71 1.583-1.583 1.583c-.872 0-1.582-.71-1.582-1.583s.71-1.583 1.582-1.583z"></path><circle cx="59.5" cy="59.649" r="2.541"></circle></g></svg>